<svg xmlns="http://www.w3.org/2000/svg" viewBox="0 0 320 180" role="img" aria-labelledby="title desc">
  <title id="title">Cibus logo</title>
  <desc id="desc">Cibus wordmark with the tagline Converting food into yield.</desc>
  <rect width="320" height="180" fill="#ffffff" />
  <g transform="translate(18 30)">
    <g transform="translate(-210 -68) scale(2.55)">
      <path d="M48.363-50.791a2.659,2.659,0,0,1,1.951.809,2.659,2.659,0,0,1,.809,1.951,2.659,2.659,0,0,1-.809,1.951,2.659,2.659,0,0,1-1.951.809,2.659,2.659,0,0,1-1.951-.809,2.659,2.659,0,0,1-.809-1.951,2.659,2.659,0,0,1,.809-1.951A2.659,2.659,0,0,1,48.363-50.791ZM45.907-22.5V-38.988H43.3v-3.9h7.424V-22.5Z" transform="translate(71.294 103.49)" fill="#025e5d"/>
      <path d="M23.18-49.573,21.143-45.48q-1.656-1.656-5.33-1.656A6.879,6.879,0,0,0,10.1-44.214a11.851,11.851,0,0,0-2.227,7.4,11.186,11.186,0,0,0,2.066,7.1,6.655,6.655,0,0,0,5.511,2.627,7.425,7.425,0,0,0,6.168-2.817l2.3,4q-3.027,3.217-8.871,3.217T5.971-26.538Q2.734-30.383,2.734-37.027A15.28,15.28,0,0,1,6.323-47.374a11.586,11.586,0,0,1,9.185-4.16A13.4,13.4,0,0,1,23.18-49.573ZM40.686-24.292l-1.066,1.5H36.936V-51.153L41.7-52.295v9.518a7.821,7.821,0,0,1,4.15-1.161,9.594,9.594,0,0,1,7.215,2.827A9.974,9.974,0,0,1,55.8-33.867a11.451,11.451,0,0,1-2.76,8.1,9.7,9.7,0,0,1-7.481,2.979A7.977,7.977,0,0,1,40.686-24.292ZM41.7-38.7v10.642a3.522,3.522,0,0,0,2.836,1.237q3.446,0,4.883-1.637T50.852-33.7q0-6.206-5.94-6.206A4.156,4.156,0,0,0,41.7-38.7ZM71.527-23.149v-1.713A8.6,8.6,0,0,1,68.747-23.4a10.073,10.073,0,0,1-3.255.609q-7.1,0-7.1-7.539V-43.557H63.15v12.869q0,3.922,3.522,3.922A5.723,5.723,0,0,0,69.68-27.6a4.256,4.256,0,0,0,1.847-1.942V-43.557h4.759v20.408Zm7.668-1.333,1.694-3.788a7.539,7.539,0,0,0,4.816,1.694q2.779,0,2.779-1.98a2.429,2.429,0,0,0-.838-1.9,12.8,12.8,0,0,0-3.255-1.751q-5.273-2.189-5.273-6.13a4.814,4.814,0,0,1,2.018-4.121A8.519,8.519,0,0,1,86.3-43.938a12.969,12.969,0,0,1,5.978,1.428L90.9-38.817a6.479,6.479,0,0,0-4.34-1.333q-2.494,0-2.494,1.98a1.779,1.779,0,0,0,.819,1.409,16.9,16.9,0,0,0,3.5,1.685,8.976,8.976,0,0,1,3.864,2.56,5.71,5.71,0,0,1,1.18,3.636,5.336,5.336,0,0,1-2.1,4.464,9.121,9.121,0,0,1-5.721,1.628,12.9,12.9,0,0,1-3.265-.333A16.015,16.015,0,0,1,79.195-24.482Z" transform="translate(89.266 104.156)" fill="#343e48"/>
    </g>
    <text x="16" y="104" fill="#025e5d" font-family="Arial, Helvetica, sans-serif" font-size="17">Converting food into yield</text>
  </g>
</svg>
